<svg xmlns="http://www.w3.org/2000/svg" width="1145.44" height="953.33" viewBox="0 0 1145.44 953.33"><defs><style>.a{fill:#035073;}.b{fill:#00738d;}.c{fill:none;stroke:#035073;stroke-miterlimit:10;stroke-width:2px;}</style></defs><title>2H-Logo</title><rect class="a" x="561.31" y="441.57" width="74.96" height="310.58" transform="translate(1195.65 -1.93) rotate(90)"/><path class="a" d="M527.43,634.34H164.73v-64.5L340.48,366.66q42.87-50.6,59.48-83.43t16.61-63q0-35.92-20.09-58.52t-57.55-22.6q-43.65,0-66.82,28.2t-23.18,71.07H158.17l-.77-2.32q-1.94-72.22,47.7-122.25t133.84-50q80.72,0,126.11,43.26t45.39,113.56q0,47.51-25.3,89.23T401.9,421.51l-118.58,136,.77,1.93H527.43Z"/><path class="b" d="M990.77,874.48H896.91V634.62H645.45V874.48H551.59V312.09h93.86V559.3H896.91V312.09h93.86Z"/><rect class="b" x="551.71" y="238.81" width="93.75" height="310.58"/><rect class="b" x="896.91" y="238.81" width="93.75" height="310.58"/><rect class="c" x="1" y="1" width="1143.44" height="951.33"/></svg>